<svg width="43" height="39" viewBox="0 0 43 39" fill="none" xmlns="http://www.w3.org/2000/svg">
<path d="M7.86062 26.0928C5.34547 27.567 -1.24909 30.5772 2.76744 34.344C4.72948 36.184 6.91469 37.5 9.66203 37.5H25.3389C28.0863 37.5 30.2715 36.184 32.2335 34.344C36.2501 30.5772 29.6555 27.567 27.1404 26.0928C21.2424 22.6357 13.7586 22.6357 7.86062 26.0928Z" stroke="#01284F" stroke-width="3" stroke-linecap="round" stroke-linejoin="round"/>
<path d="M25.5005 9.5C25.5005 13.9183 21.9188 17.5 17.5005 17.5C13.0822 17.5 9.50049 13.9183 9.50049 9.5C9.50049 5.08172 13.0822 1.5 17.5005 1.5C21.9188 1.5 25.5005 5.08172 25.5005 9.5Z" stroke="#01284F" stroke-width="3"/>
<path d="M36.5005 3.5V13.5M41.5005 8.5L31.5005 8.5" stroke="#01284F" stroke-width="3" stroke-linecap="round" stroke-linejoin="round"/>
</svg>
