<svg width="43" height="43" viewBox="0 0 43 43" fill="none" xmlns="http://www.w3.org/2000/svg">
<path d="M35.481 35.5H35.5M35.481 35.5C34.2356 36.735 31.9786 36.4274 30.3959 36.4274C28.453 36.4274 27.5174 36.8074 26.1309 38.194C24.9502 39.3747 23.3675 41.5 21.5 41.5C19.6326 41.5 18.0498 39.3748 16.8691 38.194C15.4826 36.8074 14.547 36.4274 12.6041 36.4274C11.0214 36.4274 8.76437 36.735 7.51898 35.5C6.26362 34.2551 6.57256 31.9888 6.57256 30.3958C6.57256 28.3828 6.13231 27.4572 4.69876 26.0237C2.56627 23.8912 1.50003 22.8249 1.5 21.5C1.50002 20.175 2.56625 19.1088 4.69871 16.9763C5.9784 15.6966 6.57256 14.4286 6.57256 12.6041C6.57256 11.0213 6.26499 8.76429 7.5 7.51889C8.74485 6.26357 11.0112 6.57251 12.6042 6.57251C14.4285 6.57251 15.6966 5.97841 16.9763 4.69874C19.1088 2.56625 20.175 1.5 21.5 1.5C22.825 1.5 23.8912 2.56625 26.0237 4.69874C27.3031 5.97813 28.5709 6.57251 30.3958 6.57251C31.9787 6.57251 34.2357 6.26494 35.4811 7.5C36.7364 8.74486 36.4274 11.0112 36.4274 12.6041C36.4274 14.6172 36.8677 15.5427 38.3013 16.9763C40.4338 19.1088 41.5 20.175 41.5 21.5C41.5 22.8249 40.4337 23.8912 38.3012 26.0237C36.8677 27.4572 36.4274 28.3829 36.4274 30.3958C36.4274 31.9888 36.7364 34.2551 35.481 35.5Z" stroke="#FFFEF6" stroke-width="3"/>
<path d="M15.5 23.2857C15.5 23.2857 17.9 24.5893 19.1 26.5C19.1 26.5 22.7 19 27.5 16.5" stroke="#FFFEF6" stroke-width="3" stroke-linecap="round" stroke-linejoin="round"/>
</svg>
