<svg width="34" height="34" viewBox="0 0 34 34" fill="none" xmlns="http://www.w3.org/2000/svg">
<path d="M19.21 25.6275H13.3875C13.3485 24.8378 13.4704 24.0484 13.7458 23.3072C14.0212 22.5661 14.4443 21.8886 14.9895 21.3159C15.5346 20.7432 16.1905 20.2872 16.9172 19.9756C17.6439 19.6641 18.4264 19.5034 19.217 19.5034C20.0077 19.5034 20.7902 19.6641 21.5169 19.9756C22.2436 20.2872 22.8994 20.7432 23.4446 21.3159C23.9898 21.8886 24.4129 22.5661 24.6883 23.3072C24.9636 24.0484 25.0856 24.8378 25.0466 25.6275H19.21Z" stroke="#FFFEF6" stroke-width="2" stroke-linecap="round" stroke-linejoin="round"/>
<path d="M19.21 17.5809C21.0722 17.5809 22.5817 16.0713 22.5817 14.2092C22.5817 12.3471 21.0722 10.8375 19.21 10.8375C17.3479 10.8375 15.8384 12.3471 15.8384 14.2092C15.8384 16.0713 17.3479 17.5809 19.21 17.5809Z" stroke="#FFFEF6" stroke-width="2" stroke-linecap="round" stroke-linejoin="round"/>
<path d="M15.1725 28.6167H23.2617" stroke="#FFFEF6" stroke-width="2" stroke-linecap="round" stroke-linejoin="round"/>
<path d="M6.58749 8.33C6.58749 7.86035 6.77406 7.40993 7.10615 7.07783C7.43825 6.74574 7.88867 6.55917 8.35832 6.55917H27.4125V3.89583C27.4125 3.42618 27.2259 2.97576 26.8938 2.64367C26.5617 2.31157 26.1113 2.125 25.6417 2.125H3.92415C3.4545 2.125 3.00408 2.31157 2.67199 2.64367C2.33989 2.97576 2.15332 3.42618 2.15332 3.89583V25.67C2.15332 26.1397 2.33989 26.5901 2.67199 26.9222C3.00408 27.2543 3.4545 27.4408 3.92415 27.4408H6.58749V8.33Z" stroke="#FFFEF6" stroke-width="2" stroke-linecap="round" stroke-linejoin="round"/>
<path d="M29.7784 6.5592H8.67002C7.51989 6.5592 6.58752 7.49157 6.58752 8.6417V29.7925C6.58752 30.9427 7.51989 31.875 8.67002 31.875H29.7784C30.9285 31.875 31.8609 30.9427 31.8609 29.7925V8.6417C31.8609 7.49157 30.9285 6.5592 29.7784 6.5592Z" stroke="#FFFEF6" stroke-width="2" stroke-linecap="round" stroke-linejoin="round"/>
</svg>
