<svg width="37" height="37" viewBox="0 0 37 37" fill="none" xmlns="http://www.w3.org/2000/svg">
<g clip-path="url(#clip0_215_134)">
<path d="M11.9898 28.3859C14.5104 29.8448 17.4754 30.3372 20.3322 29.7712C23.1889 29.2053 25.7424 27.6198 27.5165 25.3101C29.2906 23.0005 30.1642 20.1245 29.9745 17.2183C29.7848 14.3121 28.5447 11.5741 26.4854 9.51473C24.4261 7.45536 21.6882 6.21521 18.7822 6.0255C15.8761 5.83579 13.0002 6.70946 10.6907 8.48363C8.38119 10.2578 6.79569 12.8114 6.22979 15.6682C5.6639 18.5251 6.15625 21.4903 7.61504 24.0109L6.05136 28.6797C5.9926 28.8559 5.98408 29.045 6.02673 29.2257C6.06939 29.4065 6.16155 29.5718 6.29288 29.7032C6.42421 29.8345 6.58952 29.9267 6.77028 29.9693C6.95104 30.012 7.14011 30.0034 7.3163 29.9447L11.9898 28.3859Z" stroke="#01284F" stroke-width="3" stroke-linecap="round" stroke-linejoin="round"/>
</g>
<defs>
<clipPath id="clip0_215_134">
<rect width="36.2018" height="36.2018" fill="white"/>
</clipPath>
</defs>
</svg>
