<svg width="34" height="34" viewBox="0 0 34 34" fill="none" xmlns="http://www.w3.org/2000/svg">
<path d="M13.9 26.2999L20.1 26.2999" stroke="#FF560D" stroke-width="3" stroke-linecap="round" stroke-linejoin="round"/>
<path d="M2.04466 18.8809C1.49748 15.3202 1.22389 13.5398 1.89706 11.9615C2.57023 10.3832 4.06375 9.30337 7.05077 7.14365L9.28254 5.53C12.9984 2.84333 14.8563 1.5 17 1.5C19.1437 1.5 21.0017 2.84333 24.7175 5.53L26.9492 7.14365C29.9363 9.30337 31.4298 10.3832 32.1029 11.9615C32.7761 13.5398 32.5025 15.3202 31.9553 18.8808L31.4887 21.9172C30.7131 26.9648 30.3252 29.4886 28.515 30.9943C26.7047 32.5 24.0582 32.5 18.7652 32.5H15.2348C9.94182 32.5 7.29531 32.5 5.48506 30.9943C3.6748 29.4886 3.28695 26.9648 2.51127 21.9172L2.04466 18.8809Z" stroke="#FF560D" stroke-width="3" stroke-linejoin="round"/>
</svg>
