<svg width="46" height="34" viewBox="0 0 46 34" fill="none" xmlns="http://www.w3.org/2000/svg">
<path d="M39.8122 28.625C41.2639 28.625 42.4187 27.7114 43.4555 26.434C45.5779 23.8189 42.0932 21.7291 40.7641 20.7057C39.413 19.6653 37.9045 19.0759 36.375 18.9375M34.4375 15.0625C37.1126 15.0625 39.2812 12.8939 39.2812 10.2188C39.2812 7.54362 37.1126 5.375 34.4375 5.375" stroke="#FFFEF6" stroke-width="3" stroke-linecap="round"/>
<path d="M5.81288 28.625C4.36111 28.625 3.20638 27.7114 2.16959 26.434C0.0471381 23.8189 3.53189 21.7291 4.86097 20.7057C6.21204 19.6653 7.72059 19.0759 9.25009 18.9375M10.2188 15.0625C7.54371 15.0625 5.37509 12.8939 5.37509 10.2188C5.37509 7.54362 7.54371 5.375 10.2188 5.375" stroke="#FFFEF6" stroke-width="3" stroke-linecap="round"/>
<path d="M15.2248 23.0279C13.2451 24.2521 8.0545 26.7516 11.216 29.8794C12.7603 31.4073 14.4803 32.5 16.6427 32.5H28.9822C31.1446 32.5 32.8646 31.4073 34.409 29.8794C37.5704 26.7516 32.3798 24.2521 30.4001 23.0279C25.7577 20.1574 19.8672 20.1574 15.2248 23.0279Z" stroke="#FFFEF6" stroke-width="3" stroke-linecap="round" stroke-linejoin="round"/>
<path d="M29.5937 8.28125C29.5937 12.0264 26.5577 15.0625 22.8125 15.0625C19.0673 15.0625 16.0312 12.0264 16.0312 8.28125C16.0312 4.53607 19.0673 1.5 22.8125 1.5C26.5577 1.5 29.5937 4.53607 29.5937 8.28125Z" stroke="#FFFEF6" stroke-width="3"/>
</svg>
