<svg width="35" height="36" viewBox="0 0 35 36" fill="none" xmlns="http://www.w3.org/2000/svg">
<path d="M23.775 1.5V4.8M15.525 1.5V4.8M7.27501 1.5V4.8" stroke="#FFFEF6" stroke-width="3" stroke-linecap="round" stroke-linejoin="round"/>
<path d="M29.55 14.6999C29.55 9.25518 29.55 6.53282 27.8585 4.84136C26.1671 3.1499 23.4447 3.1499 18 3.1499H13.05C7.60528 3.1499 4.88292 3.1499 3.19146 4.84136C1.5 6.53282 1.5 9.25518 1.5 14.6999V22.9499C1.5 28.3946 1.5 31.117 3.19146 32.8084C4.88292 34.4999 7.60528 34.4999 13.05 34.4999H18" stroke="#FFFEF6" stroke-width="3" stroke-linecap="round" stroke-linejoin="round"/>
<path d="M26.25 21.3L26.25 34.5M32.85 27.9L19.65 27.9" stroke="#FFFEF6" stroke-width="3" stroke-linecap="round"/>
<path d="M8.925 22.95H15.525M8.925 14.7H22.125" stroke="#FFFEF6" stroke-width="3" stroke-linecap="round"/>
</svg>
