<svg width="24" height="24" viewBox="0 0 24 24" fill="none" xmlns="http://www.w3.org/2000/svg">
<path d="M21.6101 3.81995H14.3201" stroke="#FFFEF6" stroke-width="2" stroke-linecap="round" stroke-linejoin="round"/>
<path d="M9.67988 3.81995H2.37988" stroke="#FFFEF6" stroke-width="2" stroke-linecap="round" stroke-linejoin="round"/>
<path d="M14.3199 3.82C14.3199 4.27885 14.1839 4.7274 13.9289 5.10892C13.674 5.49044 13.3117 5.78781 12.8878 5.9634C12.4638 6.139 11.9974 6.18494 11.5473 6.09542C11.0973 6.0059 10.6839 5.78495 10.3594 5.46049C10.035 5.13603 9.81403 4.72265 9.72451 4.27261C9.63499 3.82257 9.68094 3.3561 9.85653 2.93217C10.0321 2.50825 10.3295 2.14592 10.711 1.89099C11.0925 1.63607 11.5411 1.5 11.9999 1.5C12.6152 1.5 13.2053 1.74443 13.6404 2.17951C14.0755 2.6146 14.3199 3.2047 14.3199 3.82Z" stroke="#FFFEF6" stroke-width="2" stroke-linecap="round" stroke-linejoin="round"/>
<path d="M21.6099 12H18.4099" stroke="#FFFEF6" stroke-width="2" stroke-linecap="round" stroke-linejoin="round"/>
<path d="M13.7699 12H2.37988" stroke="#FFFEF6" stroke-width="2" stroke-linecap="round" stroke-linejoin="round"/>
<path d="M18.41 12.0001C18.41 12.4589 18.274 12.9075 18.019 13.289C17.7641 13.6705 17.4018 13.9679 16.9778 14.1435C16.5539 14.319 16.0874 14.365 15.6374 14.2755C15.1874 14.186 14.774 13.965 14.4495 13.6405C14.1251 13.3161 13.9041 12.9027 13.8146 12.4527C13.7251 12.0026 13.771 11.5362 13.9466 11.1122C14.1222 10.6883 14.4196 10.326 14.8011 10.071C15.1826 9.81612 15.6312 9.68005 16.09 9.68005C16.7053 9.68005 17.2954 9.92448 17.7305 10.3596C18.1656 10.7947 18.41 11.3848 18.41 12.0001Z" stroke="#FFFEF6" stroke-width="2" stroke-linecap="round" stroke-linejoin="round"/>
<path d="M21.61 20.1801H10.22" stroke="#FFFEF6" stroke-width="2" stroke-linecap="round" stroke-linejoin="round"/>
<path d="M5.58988 20.1801H2.37988" stroke="#FFFEF6" stroke-width="2" stroke-linecap="round" stroke-linejoin="round"/>
<path d="M10.2201 20.18C10.2201 20.6393 10.0838 21.0882 9.82838 21.47C9.57301 21.8517 9.21009 22.149 8.78558 22.3243C8.36107 22.4996 7.89409 22.545 7.44378 22.4547C6.99347 22.3643 6.58011 22.1424 6.25605 21.8169C5.932 21.4915 5.71183 21.0771 5.62344 20.6265C5.53506 20.1758 5.58243 19.709 5.75956 19.2852C5.93669 18.8615 6.23561 18.4998 6.61844 18.2461C7.00128 17.9924 7.45081 17.858 7.91008 17.86C8.21428 17.86 8.51548 17.9201 8.79639 18.0368C9.07731 18.1535 9.33241 18.3246 9.54704 18.5401C9.76168 18.7557 9.93162 19.0115 10.0471 19.2929C10.1626 19.5744 10.2214 19.8758 10.2201 20.18Z" stroke="#FFFEF6" stroke-width="2" stroke-linecap="round" stroke-linejoin="round"/>
</svg>
