<svg width="26" height="23" viewBox="0 0 26 23" fill="none" xmlns="http://www.w3.org/2000/svg">
<path d="M22.4331 9.12964C22.4331 13.8241 18.4037 17.6296 13.4331 17.6296C8.46254 17.6296 4.43311 13.8241 4.43311 9.12964C4.43311 4.43522 8.46254 0.629639 13.4331 0.629639C18.4037 0.629639 22.4331 4.43522 22.4331 9.12964Z" fill="#FFBB0D"/>
<path fill-rule="evenodd" clip-rule="evenodd" d="M23.0997 9.12963C23.0997 14.1718 18.7718 18.2593 13.433 18.2593C8.09427 18.2593 3.76636 14.1718 3.76636 9.12963C3.76636 4.08747 8.09427 0 13.433 0C18.7718 0 23.0997 4.08747 23.0997 9.12963ZM13.433 17.6296C18.4036 17.6296 22.433 13.8241 22.433 9.12963C22.433 4.43521 18.4036 0.62963 13.433 0.62963C8.46246 0.62963 4.43302 4.43521 4.43302 9.12963C4.43302 13.8241 8.46246 17.6296 13.433 17.6296Z" fill="#FF560D"/>
<path d="M20.0997 9.12967C20.0997 12.607 17.1149 15.426 13.433 15.426C9.75113 15.426 6.76636 12.607 6.76636 9.12967C6.76636 5.65232 9.75113 2.83337 13.433 2.83337C17.1149 2.83337 20.0997 5.65232 20.0997 9.12967Z" fill="#FFDD28"/>
<path fill-rule="evenodd" clip-rule="evenodd" d="M20.7665 9.12966C20.7665 12.9547 17.4833 16.0556 13.4332 16.0556C9.3831 16.0556 6.09985 12.9547 6.09985 9.12966C6.09985 5.30458 9.3831 2.20374 13.4332 2.20374C17.4833 2.20374 20.7665 5.30458 20.7665 9.12966ZM13.4332 15.426C17.1151 15.426 20.0999 12.607 20.0999 9.12966C20.0999 5.65231 17.1151 2.83336 13.4332 2.83336C9.75129 2.83336 6.76652 5.65231 6.76652 9.12966C6.76652 12.607 9.75129 15.426 13.4332 15.426Z" fill="#0766C6"/>
<path fill-rule="evenodd" clip-rule="evenodd" d="M13.433 14.4815C16.5626 14.4815 19.0997 12.0853 19.0997 9.1296C19.0997 8.95574 19.2489 8.81479 19.433 8.81479C19.6171 8.81479 19.7664 8.95574 19.7664 9.1296C19.7664 12.4331 16.9308 15.1111 13.433 15.1111C13.2489 15.1111 13.0997 14.9701 13.0997 14.7963C13.0997 14.6224 13.2489 14.4815 13.433 14.4815Z" fill="#0766C6"/>
<path fill-rule="evenodd" clip-rule="evenodd" d="M13.4332 3.77782C10.3036 3.77782 7.76652 6.17393 7.76652 9.12967C7.76652 9.30354 7.61728 9.44449 7.43319 9.44449C7.24909 9.44449 7.09985 9.30354 7.09985 9.12967C7.09985 5.82619 9.93538 3.14819 13.4332 3.14819C13.6173 3.14819 13.7665 3.28914 13.7665 3.46301C13.7665 3.63688 13.6173 3.77782 13.4332 3.77782Z" fill="#0766C6"/>
<path d="M1.61333 18.6731L0.65934 16.5362C0.555449 16.3035 0.706539 16.0297 0.938847 16.0297L5.12071 16.0297C5.2933 16.0297 5.43321 16.1864 5.43321 16.3797L5.43321 21.2797C5.43321 21.473 5.2933 21.6297 5.12071 21.6297L0.938846 21.6297C0.706539 21.6297 0.555448 21.3559 0.65934 21.1231L1.61333 18.9862C1.65732 18.8877 1.65732 18.7717 1.61333 18.6731Z" fill="#0766C6"/>
<path d="M24.2531 18.6731L25.2071 16.5362C25.311 16.3035 25.1599 16.0297 24.9276 16.0297L20.7457 16.0297C20.5731 16.0297 20.4332 16.1864 20.4332 16.3797L20.4332 21.2797C20.4332 21.473 20.5731 21.6297 20.7457 21.6297L24.9276 21.6297C25.1599 21.6297 25.311 21.3559 25.2071 21.1231L24.2531 18.9862C24.2091 18.8877 24.2091 18.7717 24.2531 18.6731Z" fill="#0766C6"/>
<path fill-rule="evenodd" clip-rule="evenodd" d="M0.984367 18.8296L0.100248 16.8492C-0.211422 16.151 0.241848 15.3296 0.938774 15.3296L5.12064 15.3296C5.6384 15.3296 6.05814 15.7997 6.05814 16.3796L6.05814 21.2796C6.05814 21.8595 5.6384 22.3296 5.12064 22.3296L0.938774 22.3296C0.241848 22.3296 -0.211422 21.5082 0.100248 20.81L0.984367 18.8296ZM1.05406 18.9857C1.05412 18.9858 1.05418 18.986 1.05425 18.9861L1.33376 18.8296L1.05424 18.9861L1.05406 18.9857ZM24.8819 18.8296L25.766 16.8492C26.0777 16.151 25.6244 15.3296 24.9275 15.3296L20.7456 15.3296C20.2279 15.3296 19.8081 15.7997 19.8081 16.3796L19.8081 21.2796C19.8081 21.8595 20.2279 22.3296 20.7456 22.3296L24.9275 22.3296C25.6244 22.3296 26.0777 21.5082 25.766 20.81L24.8819 18.8296ZM25.207 16.5361L24.253 18.6731C24.209 18.7716 24.209 18.8876 24.253 18.9861L25.207 21.1231C25.3109 21.3558 25.1598 21.6296 24.9275 21.6296L20.7456 21.6296C20.573 21.6296 20.4331 21.4729 20.4331 21.2796L20.4331 16.3796C20.4331 16.1863 20.573 16.0296 20.7456 16.0296L24.9275 16.0296C25.1598 16.0296 25.3109 16.3034 25.207 16.5361ZM0.659265 16.5361L1.61326 18.6731C1.65725 18.7716 1.65725 18.8876 1.61326 18.9861L0.659265 21.1231C0.555374 21.3558 0.706466 21.6296 0.938774 21.6296L5.12064 21.6296C5.29323 21.6296 5.43314 21.4729 5.43314 21.2796L5.43314 16.3796C5.43314 16.1863 5.29323 16.0296 5.12064 16.0296L0.938774 16.0296C0.706467 16.0296 0.555374 16.3034 0.659265 16.5361Z" fill="#023E84"/>
<path d="M21.6831 19.8796L21.6831 14.9796C21.6831 14.7863 21.5432 14.6296 21.3706 14.6296L4.49561 14.6296C4.32302 14.6296 4.18311 14.7863 4.18311 14.9796L4.18311 19.8796C4.18311 20.0729 4.32302 20.2296 4.49561 20.2296L21.3706 20.2296C21.5432 20.2296 21.6831 20.0729 21.6831 19.8796Z" fill="#FF560D"/>
<path fill-rule="evenodd" clip-rule="evenodd" d="M22.3081 14.9797L22.3081 19.8797C22.3081 20.4596 21.8884 20.9297 21.3706 20.9297L4.49561 20.9297C3.97784 20.9297 3.55811 20.4596 3.55811 19.8797L3.55811 14.9797C3.55811 14.3998 3.97784 13.9297 4.49561 13.9297L21.3706 13.9297C21.8884 13.9297 22.3081 14.3998 22.3081 14.9797ZM21.6831 14.9797L21.6831 19.8797C21.6831 20.073 21.5432 20.2297 21.3706 20.2297L4.49561 20.2297C4.32302 20.2297 4.18311 20.073 4.18311 19.8797L4.18311 14.9797C4.18311 14.7864 4.32302 14.6297 4.49561 14.6297L21.3706 14.6297C21.5432 14.6297 21.6831 14.7864 21.6831 14.9797Z" fill="#FF560D"/>
<path d="M20.82 17.5626C20.643 17.5626 20.4996 17.4059 20.4996 17.2125C20.4996 17.0192 20.643 16.8624 20.82 16.8624C20.9969 16.8624 21.1404 17.0192 21.1404 17.2125C21.1404 17.4059 20.9969 17.5626 20.82 17.5626Z" fill="#FF560D"/>
<path d="M19.6007 17.4225C19.3806 17.4225 19.2022 17.2275 19.2022 16.987C19.2022 16.7465 19.3806 16.5515 19.6007 16.5515C19.8208 16.5515 19.9993 16.7465 19.9993 16.987C19.9993 17.2275 19.8208 17.4225 19.6007 17.4225Z" fill="#FF560D"/>
<path d="M20.144 18.4182C20.0339 18.4182 19.9447 18.3207 19.9447 18.2004C19.9447 18.0802 20.0339 17.9827 20.144 17.9827C20.254 17.9827 20.3433 18.0802 20.3433 18.2004C20.3433 18.3207 20.254 18.4182 20.144 18.4182Z" fill="#FF560D"/>
<path d="M19.8 16.1152C19.6899 16.1152 19.6007 16.0177 19.6007 15.8974C19.6007 15.7772 19.6899 15.6797 19.8 15.6797C19.91 15.6797 19.9993 15.7772 19.9993 15.8974C19.9993 16.0177 19.91 16.1152 19.8 16.1152Z" fill="#FF560D"/>
<path d="M18.7529 18.2005C18.6428 18.2005 18.5536 18.103 18.5536 17.9828C18.5536 17.8625 18.6428 17.765 18.7529 17.765C18.8629 17.765 18.9521 17.8625 18.9521 17.9828C18.9521 18.103 18.8629 18.2005 18.7529 18.2005Z" fill="#FF560D"/>
<path d="M18.5537 17.0802C18.4436 17.0802 18.3544 16.9827 18.3544 16.8624C18.3544 16.7421 18.4436 16.6447 18.5537 16.6447C18.6637 16.6447 18.7529 16.7421 18.7529 16.8624C18.7529 16.9827 18.6637 17.0802 18.5537 17.0802Z" fill="#FF560D"/>
<path d="M17.195 19.606C17.0849 19.606 16.9957 19.5085 16.9957 19.3883C16.9957 19.268 17.0849 19.1705 17.195 19.1705C17.3051 19.1705 17.3943 19.268 17.3943 19.3883C17.3943 19.5085 17.3051 19.606 17.195 19.606Z" fill="#FF560D"/>
<path d="M21.1599 18.7747C21.0498 18.7747 20.9606 18.6772 20.9606 18.557C20.9606 18.4367 21.0498 18.3392 21.1599 18.3392C21.2699 18.3392 21.3591 18.4367 21.3591 18.557C21.3591 18.6772 21.2699 18.7747 21.1599 18.7747Z" fill="#FF560D"/>
<path d="M19.2765 19.2516C19.0974 19.2516 18.9522 19.0929 18.9522 18.8972C18.9522 18.7015 19.0974 18.5428 19.2765 18.5428C19.4556 18.5428 19.6008 18.7015 19.6008 18.8972C19.6008 19.0929 19.4556 19.2516 19.2765 19.2516Z" fill="#FF560D"/>
<path d="M20.6674 19.606C20.4883 19.606 20.3431 19.4473 20.3431 19.2516C20.3431 19.0559 20.4883 18.8972 20.6674 18.8972C20.8465 18.8972 20.9917 19.0559 20.9917 19.2516C20.9917 19.4473 20.8465 19.606 20.6674 19.606Z" fill="#FF560D"/>
<path d="M17.8307 18.9092C17.6516 18.9092 17.5064 18.7505 17.5064 18.5548C17.5064 18.3591 17.6516 18.2004 17.8307 18.2004C18.0098 18.2004 18.155 18.3591 18.155 18.5548C18.155 18.7505 18.0098 18.9092 17.8307 18.9092Z" fill="#FF560D"/>
<path d="M18.3542 19.7136C18.2441 19.7136 18.1549 19.6161 18.1549 19.4958C18.1549 19.3756 18.2441 19.2781 18.3542 19.2781C18.4642 19.2781 18.5535 19.3756 18.5535 19.4958C18.5535 19.6161 18.4642 19.7136 18.3542 19.7136Z" fill="#FF560D"/>
<path fill-rule="evenodd" clip-rule="evenodd" d="M4.37842 15.1327C4.37842 14.9394 4.51833 14.7827 4.69092 14.7827H16.4097C16.5823 14.7827 16.7222 14.9394 16.7222 15.1327C16.7222 15.326 16.5823 15.4827 16.4097 15.4827H5.00342V17.9327C5.00342 18.126 4.86351 18.2827 4.69092 18.2827C4.51833 18.2827 4.37842 18.126 4.37842 17.9327V15.1327Z" fill="#FE666D"/>
<circle cx="13.4331" cy="8.62964" r="2" fill="#0766C6"/>
</svg>
