<svg width="54" height="54" viewBox="0 0 54 54" fill="none" xmlns="http://www.w3.org/2000/svg">
<path d="M14.25 20.6251C14.25 24.1459 11.3958 27.0001 7.875 27.0001C4.35418 27.0001 1.5 24.1459 1.5 20.6251C1.5 17.1043 4.35418 14.2501 7.875 14.2501C11.3958 14.2501 14.25 17.1043 14.25 20.6251ZM14.25 20.6251V1.50012C15.1 2.77512 15.78 8.13012 21.9 9.15012" stroke="#FFFEF6" stroke-width="3" stroke-linecap="round" stroke-linejoin="round"/>
<circle cx="23.175" cy="46.1251" r="6.375" stroke="#FFFEF6" stroke-width="3"/>
<circle cx="47.4" cy="42.3001" r="5.1" stroke="#FFFEF6" stroke-width="3"/>
<path d="M29.55 46.1251L29.55 23.3501C29.55 21.5137 29.55 20.5956 30.0628 20.0253C30.5755 19.455 31.5655 19.3495 33.5453 19.1385C42.1138 18.2255 48.2356 14.5774 51.2434 12.5621C51.7989 12.1898 52.0767 12.0037 52.2884 12.1167C52.5001 12.2296 52.5001 12.5617 52.5001 13.2257V42.1112" stroke="#FFFEF6" stroke-width="3" stroke-linecap="round" stroke-linejoin="round"/>
<path d="M29.55 29.5501C41.7901 29.5501 49.9501 23.6001 52.5001 21.9001" stroke="#FFFEF6" stroke-width="3" stroke-linecap="round" stroke-linejoin="round"/>
</svg>
