<svg width="43" height="50" viewBox="0 0 43 50" fill="none" xmlns="http://www.w3.org/2000/svg">
<path d="M1.5 18.816C1.5 10.6533 1.5 6.57192 3.90905 4.03608C6.31809 1.50024 10.1954 1.50024 17.95 1.50024H25C32.7546 1.50024 36.6319 1.50024 39.041 4.03608C41.45 6.57192 41.45 10.6533 41.45 18.816V31.1845C41.45 39.3472 41.45 43.4286 39.041 45.9644C36.6319 48.5002 32.7546 48.5002 25 48.5002H17.95C10.1954 48.5002 6.31809 48.5002 3.90905 45.9644C1.5 43.4286 1.5 39.3472 1.5 31.1845V18.816Z" stroke="#FFFEF6" stroke-width="3" stroke-linecap="round" stroke-linejoin="round"/>
<path d="M25 22.6501L33.225 22.6501" stroke="#FFFEF6" stroke-width="3" stroke-linecap="round"/>
<path d="M9.72501 25.0003C9.72501 25.0003 10.9 25.0003 12.075 27.3503C12.075 27.3503 15.8074 21.4753 19.125 20.3003" stroke="#FFFEF6" stroke-width="3" stroke-linecap="round" stroke-linejoin="round"/>
<path d="M25 36.7502H33.225" stroke="#FFFEF6" stroke-width="3" stroke-linecap="round"/>
<path d="M12.075 1.50024L12.2682 2.65926C12.7371 5.47278 12.9716 6.87954 13.9577 7.71489C14.9438 8.55024 16.3699 8.55024 19.2223 8.55024H23.7278C26.5801 8.55024 28.0063 8.55024 28.9924 7.71489C29.9785 6.87954 30.2129 5.47278 30.6818 2.65926L30.875 1.50024" stroke="#FFFEF6" stroke-width="3" stroke-linecap="round" stroke-linejoin="round"/>
<path d="M12.075 36.7502H14.425" stroke="#FFFEF6" stroke-width="4" stroke-linecap="round" stroke-linejoin="round"/>
</svg>
