<svg width="19" height="23" viewBox="0 0 19 23" fill="none" xmlns="http://www.w3.org/2000/svg">
<path d="M1.25 5.05854C1.25 3.26318 1.25 2.3655 1.69917 1.80775C2.14834 1.25 2.87128 1.25 4.31714 1.25C5.76301 1.25 6.48594 1.25 6.93511 1.80775C7.38428 2.3655 7.38428 3.26318 7.38428 5.05854V17.7537C7.38428 19.549 7.38428 20.4467 6.93511 21.0045C6.48594 21.5622 5.76301 21.5622 4.31714 21.5622C2.87128 21.5622 2.14834 21.5622 1.69917 21.0045C1.25 20.4467 1.25 19.549 1.25 17.7537V5.05854Z" fill="#01284F" stroke="#01284F" stroke-width="2.5"/>
<path d="M11.4739 5.05854C11.4739 3.26318 11.4739 2.3655 11.923 1.80775C12.3722 1.25 13.0952 1.25 14.541 1.25C15.9869 1.25 16.7098 1.25 17.159 1.80775C17.6082 2.3655 17.6082 3.26318 17.6082 5.05854V17.7537C17.6082 19.549 17.6082 20.4467 17.159 21.0045C16.7098 21.5622 15.9869 21.5622 14.541 21.5622C13.0952 21.5622 12.3722 21.5622 11.923 21.0045C11.4739 20.4467 11.4739 19.549 11.4739 17.7537V5.05854Z" fill="#01284F" stroke="#01284F" stroke-width="2.5"/>
</svg>
