<svg width="34" height="34" viewBox="0 0 34 34" fill="none" xmlns="http://www.w3.org/2000/svg">
<path d="M31.0238 17.7382C31.0238 25.891 24.4147 32.5001 16.2619 32.5001C8.10913 32.5001 1.5 25.891 1.5 17.7382C1.5 9.58545 8.10913 2.97632 16.2619 2.97632C17.9873 2.97632 19.6435 3.27232 21.1825 3.8163" stroke="#FFFEF6" stroke-width="3" stroke-linecap="round"/>
<path d="M28.0714 12.5716C28.0714 14.6097 26.4191 16.262 24.381 16.262C22.3428 16.262 20.6905 14.6097 20.6905 12.5716C20.6905 10.5334 22.3428 8.88107 24.381 8.88107C26.4191 8.88107 28.0714 10.5334 28.0714 12.5716ZM28.0714 12.5716V1.50012C28.5635 2.23822 28.9571 5.33822 32.5 5.92869" stroke="#FFFEF6" stroke-width="3" stroke-linecap="round" stroke-linejoin="round"/>
<path d="M18.4762 17.7382C18.4762 16.5153 17.4848 15.5239 16.2619 15.5239C15.039 15.5239 14.0476 16.5153 14.0476 17.7382C14.0476 18.9611 15.039 19.9525 16.2619 19.9525C17.4848 19.9525 18.4762 18.9611 18.4762 17.7382Z" stroke="#FFFEF6" stroke-width="3"/>
</svg>
