<svg width="32" height="32" viewBox="0 0 32 32" fill="none" xmlns="http://www.w3.org/2000/svg">
<path d="M9.88472 23.4111C8.28917 24.3273 4.10574 26.1979 6.65373 28.5387C7.8984 29.6821 9.28464 30.4999 11.0275 30.4999H20.9725C22.7154 30.4999 24.1016 29.6821 25.3463 28.5387C27.8943 26.1979 23.7108 24.3273 22.1153 23.4111C18.3738 21.2629 13.6262 21.2629 9.88472 23.4111Z" stroke="#FFFEF6" stroke-width="3" stroke-linecap="round" stroke-linejoin="round"/>
<path d="M21.075 13.1C21.075 15.9029 18.8029 18.175 16 18.175C13.1972 18.175 10.925 15.9029 10.925 13.1C10.925 10.2972 13.1972 8.02502 16 8.02502C18.8029 8.02502 21.075 10.2972 21.075 13.1Z" stroke="#FFFEF6" stroke-width="3"/>
<path d="M2.73831 21.8C1.94226 20.0112 1.5 18.0314 1.5 15.9486C1.5 7.96886 7.99187 1.5 16 1.5C24.0081 1.5 30.5 7.96886 30.5 15.9486C30.5 18.0314 30.0577 20.0112 29.2617 21.8" stroke="#FFFEF6" stroke-width="3" stroke-linecap="round"/>
</svg>
