<svg width="39" height="57" viewBox="0 0 39 57" fill="none" xmlns="http://www.w3.org/2000/svg">
<path d="M28.5 39.1875V34.4375" stroke="#FFFEF6" stroke-width="2.9375" stroke-linecap="round"/>
<path d="M10.136 44.7562C10.6701 48.7231 13.9558 51.8308 17.9542 52.0146C21.3187 52.1692 24.7364 52.25 28.5 52.25C32.2637 52.25 35.6813 52.1692 39.0457 52.0146C43.0443 51.8308 46.3299 48.7231 46.864 44.7562C47.2124 42.1674 47.5 39.5143 47.5 36.8125C47.5 34.1107 47.2124 31.4576 46.864 28.8688C46.3299 24.9019 43.0443 21.7942 39.0457 21.6103C35.6813 21.4557 32.2637 21.375 28.5 21.375C24.7364 21.375 21.3187 21.4557 17.9542 21.6103C13.9558 21.7942 10.6701 24.9019 10.136 28.8688C9.78749 31.4576 9.5 34.1107 9.5 36.8125C9.5 39.5143 9.78749 42.1674 10.136 44.7562Z" stroke="#FFFEF6" stroke-width="3"/>
<path d="M17.8125 21.375V15.4375C17.8125 9.53496 22.5975 4.75 28.5 4.75C34.4026 4.75 39.1875 9.53496 39.1875 15.4375V21.375" stroke="#FFFEF6" stroke-width="3" stroke-linecap="round" stroke-linejoin="round"/>
</svg>
