<svg width="49" height="49" viewBox="0 0 49 49" fill="none" xmlns="http://www.w3.org/2000/svg">
<path d="M1.5 24.5C1.5 13.6577 1.5 8.23654 4.86827 4.86827C8.23654 1.5 13.6577 1.5 24.5 1.5C35.3423 1.5 40.7635 1.5 44.1317 4.86827C47.5 8.23654 47.5 13.6577 47.5 24.5C47.5 35.3423 47.5 40.7635 44.1317 44.1317C40.7635 47.5 35.3423 47.5 24.5 47.5C13.6577 47.5 8.23654 47.5 4.86827 44.1317C1.5 40.7635 1.5 35.3423 1.5 24.5Z" stroke="#FFFEF6" stroke-width="3"/>
<path d="M24.5 14.8157V34.1841" stroke="#FFFEF6" stroke-width="3" stroke-linecap="round" stroke-linejoin="round"/>
<path d="M17.2368 19.658V29.3422" stroke="#FFFEF6" stroke-width="3" stroke-linecap="round" stroke-linejoin="round"/>
<path d="M9.97369 22.0789V26.921" stroke="#FFFEF6" stroke-width="3" stroke-linecap="round" stroke-linejoin="round"/>
<path d="M31.7632 19.658V29.3422" stroke="#FFFEF6" stroke-width="3" stroke-linecap="round" stroke-linejoin="round"/>
<path d="M39.0263 22.0789V26.921" stroke="#FFFEF6" stroke-width="3" stroke-linecap="round" stroke-linejoin="round"/>
</svg>
